<svg width="18" height="10" viewBox="0 0 18 10" fill="none" xmlns="http://www.w3.org/2000/svg">
<path d="M1.19203 9.99793C1.8616 10.0464 2.3913 9.23855 4.12496 7.96752C3.95267 8.09384 5.16602 7.17984 5.65701 6.79546C5.87548 6.62443 7.25686 5.65927 7.09459 5.08297C6.86243 4.25846 4.07656 6.11778 3.34798 6.60267C5.91095 0.791854 12.4783 0.662229 15.3214 3.7561C16.7657 5.32794 17.2399 7.33586 17.185 8.016C17.1524 8.41911 17.8325 8.34693 17.8791 7.77067C17.9305 7.13386 18.1359 6.79094 17.8561 5.43558C17.4559 3.49652 15.8601 1.37249 13.3763 0.472028C9.29412 -1.00786 4.37791 1.06761 2.21019 5.638C1.94249 3.25585 1.96064 2.28332 1.3133 2.13478C0.918911 2.04427 0.544161 2.33651 0.323376 2.62478C-0.121365 3.20545 -0.00166512 4.02981 0.0721436 4.70936C0.292601 6.73926 0.441383 8.16258 0.624388 9.52978C0.66148 9.80688 0.93574 9.97937 1.19203 9.99793Z" fill="white"/>
</svg>
