<svg width="1139" height="1139" viewBox="0 0 1139 1139" fill="none" xmlns="http://www.w3.org/2000/svg">
<path d="M861.195 102.234C855.949 111.312 844.341 114.425 835.262 109.188C826.184 103.943 823.072 92.3339 828.308 83.2556C833.554 74.1774 845.163 71.0651 854.241 76.3015C863.319 81.5471 866.431 93.1558 861.195 102.234ZM1062.7 284.75C1057.45 275.672 1045.84 272.559 1036.77 277.796C1027.69 283.041 1024.58 294.65 1029.81 303.728C1035.06 312.807 1046.67 315.919 1055.74 310.683C1064.82 305.437 1067.93 293.828 1062.7 284.75ZM1139 569.5C1139 559.018 1130.5 550.512 1120.01 550.512C1109.53 550.512 1101.02 559.009 1101.02 569.5C1101.02 579.982 1109.52 588.488 1120.01 588.488C1130.49 588.488 1139 579.991 1139 569.5ZM1062.7 854.25C1067.94 845.172 1064.83 833.554 1055.74 828.318C1046.67 823.072 1035.05 826.184 1029.81 835.272C1024.57 844.35 1027.68 855.968 1036.77 861.204C1045.84 866.45 1057.46 863.338 1062.7 854.25ZM854.25 1062.7C863.328 1057.45 866.441 1045.84 861.204 1036.77C855.959 1027.69 844.35 1024.58 835.272 1029.81C826.193 1035.06 823.081 1046.67 828.318 1055.74C833.563 1064.82 845.172 1067.93 854.25 1062.7ZM569.5 1139C579.982 1139 588.488 1130.5 588.488 1120.01C588.488 1109.53 579.991 1101.02 569.5 1101.02C559.018 1101.02 550.512 1109.52 550.512 1120.01C550.512 1130.49 559.009 1139 569.5 1139ZM284.75 1062.7C293.828 1067.94 305.446 1064.83 310.683 1055.74C315.928 1046.67 312.816 1035.05 303.728 1029.81C294.65 1024.57 283.032 1027.68 277.796 1036.77C272.55 1045.84 275.663 1057.46 284.75 1062.7ZM76.3015 854.25C81.5471 863.328 93.1558 866.441 102.234 861.204C111.312 855.959 114.425 844.35 109.188 835.272C103.943 826.193 92.3339 823.081 83.2556 828.318C74.1774 833.563 71.0651 845.172 76.3015 854.25ZM0 569.5C0 579.982 8.49642 588.488 18.9876 588.488C29.4696 588.488 37.9753 579.991 37.9753 569.5C37.9753 559.009 29.4789 550.512 18.9876 550.512C8.49642 550.512 0 559.009 0 569.5ZM76.3015 284.75C71.0559 293.828 74.1682 305.446 83.2556 310.683C92.3431 315.919 103.952 312.816 109.188 303.728C114.425 294.641 111.322 283.032 102.234 277.796C93.1466 272.559 81.5379 275.663 76.3015 284.75ZM284.75 76.3015C275.672 81.5471 272.559 93.1558 277.796 102.234C283.041 111.312 294.65 114.425 303.728 109.188C312.807 103.952 315.919 92.3339 310.683 83.2556C305.446 74.1774 293.828 71.0651 284.75 76.3015ZM569.5 0C559.018 0 550.512 8.49642 550.512 18.9876C550.512 29.4789 559.009 37.9753 569.5 37.9753C579.991 37.9753 588.488 29.4789 588.488 18.9876C588.488 8.49642 579.991 0 569.5 0Z" fill="white"/>
<path d="M715.294 215.637H897C888.228 207.554 879.158 199.788 869.809 192.357H716.514C714.884 188.045 710.731 185 705.889 185H671.779C667.002 185 662.802 187.98 661.154 192.357H477.865C476.217 187.98 472.017 185 467.24 185H433.13C428.278 185 424.125 188.045 422.505 192.357H269.191C259.842 199.788 250.772 207.554 242 215.637H423.706C424.488 217.462 425.457 219.213 426.63 220.843L441.306 241.292L431.482 317.28L441.362 346.017L450.562 411.538L481.031 443.404L476.226 486.184L512.021 549.433L512.822 605.045C512.822 605.045 463.999 735.034 475.015 805.266L543.897 891.842L554.298 889.113L565.156 860.05L546.066 808.963L517.227 790.181C517.124 787.927 517.078 787.08 516.975 784.817L538.84 767.459C540.097 765.541 541.252 763.771 542.509 761.862L559.792 696.807H579.226L596.51 761.862C597.767 763.781 598.921 765.55 600.179 767.459L622.043 784.817C621.941 787.07 621.894 787.918 621.792 790.181L592.952 808.963L560.453 895.921L521.278 906.192C519.126 906.76 517.869 908.986 518.493 911.118L541.578 989.685C542.239 991.948 544.502 993.335 546.82 992.916L554.559 991.51C561.794 990.197 566.357 982.962 564.42 975.866L563.461 972.336L562.698 943.897C562.055 937.453 563.955 931.018 567.987 925.952L664.003 805.276C675.019 735.052 626.196 605.054 626.196 605.054L626.997 549.442L662.793 486.193L657.988 443.413L688.457 411.547L697.657 346.026L707.537 317.289L697.713 241.302L712.389 220.852C713.562 219.222 714.521 217.462 715.313 215.646L715.294 215.637ZM665.437 336.118L640.788 363.98L638.963 392.718L607.908 413.177L605.188 431.633L594.051 438.608V401.723L606.259 388.862C608.196 386.823 609.276 384.113 609.276 381.301V360.851C609.276 350.878 605.579 341.268 598.903 333.865L592.496 326.759C586.462 320.064 577.876 316.246 568.862 316.246H552.212L542.099 308.889L538.291 314.281C534.892 319.096 533.942 325.214 535.702 330.829L537.481 336.472L529.686 354.845V379.429C529.686 383.452 531.232 387.317 533.998 390.231L544.912 401.732V438.618L533.774 431.643L531.055 413.186L500 392.727L498.174 363.99L473.525 336.128L476.198 313.201L466.448 239.532L477.232 215.646H661.694L672.477 239.532L662.728 313.201L665.4 336.128L665.437 336.118Z" fill="white"/>
<path d="M617.722 906.192L598.167 901.07L574.691 930.581L577.299 933.858L576.302 943.906L575.539 972.346L574.58 975.875C572.643 982.971 577.206 990.206 584.441 991.52L592.179 992.926C594.498 993.345 596.761 991.957 597.422 989.694L620.507 911.127C621.131 908.995 619.873 906.76 617.722 906.201V906.192Z" fill="white"/>
</svg>
